<svg width="23" height="20" viewBox="0 0 23 20" fill="none" xmlns="http://www.w3.org/2000/svg">
<path d="M11.342 18.2335C11.2241 18.313 11.0851 18.3555 10.9428 18.3555C10.8005 18.3555 10.6614 18.313 10.5435 18.2335C8.65384 16.9755 0.706055 11.3772 0.706055 6.09521C0.706055 -0.720291 8.74188 -1.81199 10.9428 2.77929C13.1437 -1.81199 21.1795 -0.720291 21.1795 6.09521C21.1795 11.3782 13.2317 16.9755 11.342 18.2315V18.2335Z" fill="#FFB09B"/>
<path d="M11.9166 3.52977C11.7928 3.65967 11.669 3.79138 11.5161 3.94834L11.0956 4.38315L10.6587 3.96278C10.5294 3.83829 10.3984 3.71019 10.2709 3.5857C8.92017 2.26865 7.90254 1.27634 5.80721 1.24928C5.72529 1.24748 5.63791 1.24928 5.54689 1.25289C4.37452 1.29439 3.29318 1.72198 2.50311 2.45267C1.72396 3.17435 1.22698 4.19732 1.21059 5.44221C1.20877 5.51979 1.21059 5.60098 1.21423 5.68938C1.33985 9.16605 4.69674 12.1989 7.4802 14.7121C8.01723 15.1975 8.53241 15.6629 9.02575 16.1338L11.0756 18.0914L13.6515 15.5583C14.0666 15.1505 14.5362 14.7049 15.0387 14.2286C15.8925 13.4167 16.8427 12.5164 17.7275 11.6089C18.3628 10.9576 18.9654 10.3027 19.4769 9.67303C19.9793 9.056 20.3908 8.46964 20.6547 7.94642C21.088 7.08763 21.2245 6.22884 21.1317 5.42597C21.0407 4.63394 20.7257 3.89422 20.2542 3.26275C19.7755 2.62227 19.1383 2.09184 18.4083 1.72919C17.5673 1.31423 16.6043 1.11758 15.6194 1.22943C13.9209 1.42429 13.0162 2.37509 11.9166 3.52977ZM11.0628 2.6782C12.3189 1.35934 13.362 0.278628 15.481 0.0386716C16.7044 -0.100251 17.9022 0.14151 18.9453 0.661116C19.8465 1.10855 20.6329 1.76167 21.2227 2.5501C21.818 3.34755 22.2167 4.28392 22.3332 5.29066C22.4515 6.31183 22.2804 7.39975 21.7324 8.48227C21.423 9.09389 20.9642 9.75061 20.4163 10.4236C19.8792 11.0839 19.253 11.7659 18.5958 12.4388C17.6947 13.3644 16.7371 14.2737 15.8743 15.0928C15.37 15.5709 14.8985 16.0184 14.5016 16.4081L11.5052 19.3543L11.0847 19.7675L10.6587 19.3615L8.18289 16.998C7.7296 16.5668 7.20531 16.0923 6.661 15.5998C3.71006 12.9314 0.147456 9.71453 0.00364088 5.73088C0 5.63346 0 5.53242 0 5.42778C0.0218453 3.82927 0.666282 2.5086 1.67663 1.57403C2.67787 0.648487 4.03774 0.107231 5.50138 0.0549093C5.6015 0.0513009 5.70709 0.0494967 5.81813 0.0513009C8.37403 0.0855805 9.54276 1.19516 11.0628 2.6782Z" fill="#FFB09B"/>
</svg>
